<svg width="15" height="16" viewBox="0 0 15 16" fill="none" xmlns="http://www.w3.org/2000/svg">
<path fill-rule="evenodd" clip-rule="evenodd" d="M13.3763 2.83409C14.3806 3.40287 15 4.45463 15 5.59219V10.4072C15 11.5454 14.3806 12.5965 13.3763 13.1653L9.12313 15.5734C8.11875 16.1422 6.88062 16.1422 5.87625 15.5734L1.62313 13.1653C0.61875 12.5965 0 11.5454 0 10.4072V5.59219C0 4.45463 0.61875 3.40287 1.62313 2.83409L5.87625 0.426585C6.88062 -0.142195 8.11875 -0.142195 9.12313 0.426585L13.3763 2.83409ZM6.44562 1.5194L2.30375 3.86439C1.65125 4.23398 1.25 4.91615 1.25 5.65532V10.3447C1.25 11.0832 1.65125 11.766 2.30375 12.1356L6.44562 14.48C7.09812 14.8496 7.90125 14.8496 8.55375 14.48L12.6956 12.1356C13.3481 11.766 13.75 11.0832 13.75 10.3447V5.65532C13.75 4.91615 13.3481 4.23398 12.6956 3.86439L8.55375 1.5194C7.90125 1.14982 7.09812 1.14982 6.44562 1.5194ZM8.36563 2.8298L11.6337 4.67956C12.1694 4.98295 12.5 5.54377 12.5 6.15116V9.85129C12.5 10.4581 12.1694 11.0189 11.6337 11.3223L8.36563 13.1727C7.83 13.476 7.16938 13.476 6.63375 13.1727L3.36563 11.3223C2.83 11.0189 2.5 10.4581 2.5 9.85129V6.15116C2.5 5.54377 2.83 4.98295 3.36563 4.67956L6.63375 2.8298C7.16938 2.52641 7.83 2.52641 8.36563 2.8298ZM5.625 9.83965H9.375V6.16219H5.625V9.83965Z" fill="#95A0A7"/>
</svg>
