<svg width="16" height="16" viewBox="0 0 16 16" fill="none" xmlns="http://www.w3.org/2000/svg">
<path fill-rule="evenodd" clip-rule="evenodd" d="M13.8763 2.83409C14.8806 3.40287 15.5 4.45463 15.5 5.59219V10.4072C15.5 11.5454 14.8806 12.5965 13.8763 13.1653L9.62312 15.5734C8.61875 16.1422 7.38062 16.1422 6.37625 15.5734L2.12313 13.1653C1.11875 12.5965 0.5 11.5454 0.5 10.4072V5.59219C0.5 4.45463 1.11875 3.40287 2.12313 2.83409L6.37625 0.426585C7.38062 -0.142195 8.61875 -0.142195 9.62312 0.426585L13.8763 2.83409ZM6.94562 1.5194L2.80375 3.86439C2.15125 4.23398 1.75 4.91615 1.75 5.65532V10.3447C1.75 11.0832 2.15125 11.766 2.80375 12.1356L6.94562 14.48C7.59812 14.8496 8.40125 14.8496 9.05375 14.48L13.1956 12.1356C13.8481 11.766 14.25 11.0832 14.25 10.3447V5.65532C14.25 4.91615 13.8481 4.23398 13.1956 3.86439L9.05375 1.5194C8.40125 1.14982 7.59812 1.14982 6.94562 1.5194ZM8.86563 2.8298L12.1337 4.67956C12.6694 4.98295 13 5.54377 13 6.15116V9.85129C13 10.4581 12.6694 11.0189 12.1337 11.3223L8.86563 13.1726C8.33 13.476 7.66938 13.476 7.13375 13.1726L3.86563 11.3223C3.33 11.0189 3 10.4581 3 9.85129V6.15116C3 5.54377 3.33 4.98295 3.86563 4.67956L7.13375 2.8298C7.66938 2.52641 8.33 2.52641 8.86563 2.8298ZM6.125 9.83965H9.875V6.16219H6.125V9.83965Z" fill="#000"/>
</svg>
