<svg width="16" height="16" viewBox="0 0 16 16" fill="none" xmlns="http://www.w3.org/2000/svg">
<path fill-rule="evenodd" clip-rule="evenodd" d="M13.5133 3.96661C13.5133 3.96661 15.2887 7.198 15.2887 11.1846C15.2887 11.1846 14.2407 12.9799 11.5161 13.0665C11.5161 13.0665 11.0722 12.5341 10.7024 12.0637C12.3174 11.6056 12.9339 10.5903 12.9339 10.5903C12.4284 10.9246 11.9476 11.1599 11.5161 11.3208C8.8598 12.4412 5.90388 12.0578 3.82292 10.8875C3.81685 10.8834 3.79472 10.8707 3.76208 10.8518C3.65993 10.7929 3.45489 10.6746 3.31744 10.578C3.31744 10.578 3.90922 11.5684 5.47497 12.0389C5.10511 12.5094 4.64895 13.0665 4.64895 13.0665C1.92429 12.9799 0.888672 11.1846 0.888672 11.1846C0.888672 7.198 2.66401 3.96661 2.66401 3.96661C4.43936 2.62948 6.1284 2.66662 6.1284 2.66662L6.25169 2.81519C4.03251 3.45899 3.00922 4.43708 3.00922 4.43708C3.00922 4.43708 3.28045 4.28851 3.73662 4.07803C6.57744 2.82491 10.0176 2.8252 12.9462 4.43708C12.9462 4.43708 11.9722 3.50852 9.87634 2.86471L10.0489 2.66662C10.0489 2.66662 11.738 2.62948 13.5133 3.96661ZM10.2832 10.0332C10.9859 10.0332 11.5407 9.41417 11.5407 8.65894C11.5407 7.90371 10.9859 7.28467 10.2832 7.28467C9.58045 7.28467 9.02566 7.90371 9.02566 8.65894C9.02566 9.41417 9.59278 10.0332 10.2832 10.0332ZM4.52566 8.65894C4.52566 7.90371 5.08045 7.28467 5.78319 7.28467C6.48593 7.28467 7.05306 7.90371 7.04073 8.65894C7.04073 9.41417 6.48593 10.0332 5.78319 10.0332C5.09278 10.0332 4.52566 9.41417 4.52566 8.65894Z" fill="#95A0A7"/>
</svg>
