<svg width="17" height="16" viewBox="0 0 17 16" fill="none" xmlns="http://www.w3.org/2000/svg">
<path d="M1.49999 14C1.49999 14.5531 1.94686 15 2.49999 15H7.99999V10H1.49999V14ZM15 5H14.1844C14.3781 4.62188 14.5 4.20312 14.5 3.75C14.5 2.23438 13.2656 1 11.75 1C10.45 1 9.60936 1.66563 8.53124 3.13438C7.45311 1.66563 6.61249 1 5.31249 1C3.79686 1 2.56249 2.23438 2.56249 3.75C2.56249 4.20312 2.68124 4.62188 2.87811 5H2C1.44687 5 1 5.44688 1 6V8.5C1 8.775 1.225 9 1.5 9H15.5C15.775 9 16 8.775 16 8.5V6C16 5.44688 15.5531 5 15 5ZM5.30936 5C4.61874 5 4.05937 4.44062 4.05937 3.75C4.05937 3.05938 4.61874 2.5 5.30936 2.5C5.93124 2.5 6.39061 2.60313 7.99999 5H5.30936ZM11.75 5H9.05936C10.6656 2.60938 11.1125 2.5 11.75 2.5C12.4406 2.5 13 3.05938 13 3.75C13 4.44062 12.4406 5 11.75 5ZM9.05936 15H14.5C15.0531 15 15.5 14.5531 15.5 14V10H9.05936V15Z" fill="#95A0A7"/>
</svg>
