<svg width="17" height="16" viewBox="0 0 17 16" fill="none" xmlns="http://www.w3.org/2000/svg">
<path fill-rule="evenodd" clip-rule="evenodd" d="M15.5 8C15.5 11.866 12.366 15 8.5 15C4.63401 15 1.5 11.866 1.5 8C1.5 4.13401 4.63401 1 8.5 1C12.366 1 15.5 4.13401 15.5 8ZM11.125 6.25C11.125 7.69975 9.94975 8.875 8.5 8.875C7.05025 8.875 5.875 7.69975 5.875 6.25C5.875 4.80025 7.05025 3.625 8.5 3.625C9.94975 3.625 11.125 4.80025 11.125 6.25ZM8.50298 10.625C9.83444 10.625 11.0501 11.1206 11.9756 11.9375C11.4251 12.4234 10.7718 12.7957 10.0526 13.0175C9.59202 12.7672 9.0641 12.625 8.50298 12.625C7.94185 12.625 7.41394 12.7672 6.95332 13.0175C6.23411 12.7957 5.58087 12.4234 5.03033 11.9375C5.95582 11.1206 7.17152 10.625 8.50298 10.625Z" fill="#95A0A7"/>
</svg>
