<svg width="17" height="16" viewBox="0 0 17 16" fill="none" xmlns="http://www.w3.org/2000/svg">
<path fill-rule="evenodd" clip-rule="evenodd" d="M5.5 7.75C7.15685 7.75 8.5 6.40685 8.5 4.75C8.5 3.09315 7.15685 1.75 5.5 1.75C3.84315 1.75 2.5 3.09315 2.5 4.75C2.5 6.40685 3.84315 7.75 5.5 7.75ZM4.90476 8.75C3.02436 8.75 1.5 10.2744 1.5 12.1548C1.5 13.3119 2.43807 14.25 3.59524 14.25H7.40476C8.56193 14.25 9.5 13.3119 9.5 12.1548C9.5 10.2744 7.97564 8.75 6.09524 8.75H5.5H4.90476Z" fill="#95A0A7"/>
<path d="M10.5 8H12.5M14.5 8H12.5M12.5 8V6M12.5 8V10" stroke="#95A0A7" stroke-width="2" stroke-linecap="round"/>
</svg>
