<svg width="16" height="16" viewBox="0 0 16 16" fill="none" xmlns="http://www.w3.org/2000/svg">
<path d="M15.1109 3.92854C14.5874 4.1427 14.0258 4.28794 13.4356 4.35279C14.0382 4.01962 14.4995 3.49118 14.7181 2.86344C14.1528 3.17197 13.5289 3.396 12.8642 3.51744C12.3318 2.9931 11.5746 2.6665 10.7348 2.6665C9.12354 2.6665 7.81711 3.87275 7.81711 5.35963C7.81711 5.57051 7.84288 5.77648 7.89266 5.97343C5.46823 5.861 3.31842 4.78851 1.87958 3.15883C1.62807 3.556 1.48498 4.01879 1.48498 4.51279C1.48498 5.44743 2.00045 6.27211 2.78253 6.75459C2.30439 6.73983 1.85469 6.61838 1.461 6.41652V6.45016C1.461 7.75487 2.46704 8.84377 3.801 9.0916C3.5566 9.15232 3.29888 9.18597 3.03226 9.18597C2.84386 9.18597 2.66167 9.16874 2.48303 9.13591C2.8545 10.2068 3.93165 10.9855 5.20786 11.0068C4.20982 11.7289 2.95139 12.1581 1.58454 12.1581C1.34904 12.1581 1.11706 12.145 0.888672 12.1212C2.17999 12.8868 3.71304 13.3332 5.36073 13.3332C10.7277 13.3332 13.6614 9.22865 13.6614 5.669L13.6516 5.32026C14.2248 4.94277 14.7207 4.46848 15.1109 3.92854Z" fill="#95A0A7"/>
</svg>
